<mxfile host="app.diagrams.net" modified="2022-04-06T09:05:19.668Z" agent="5.0 (Windows NT 10.0; Win64; x64) AppleWebKit/537.36 (KHTML, like Gecko) Chrome/100.0.4896.60 Safari/537.36 Edg/100.0.1185.29" etag="vN5s7HyIxxH_W76zToGu" version="17.4.0" type="github" pages="6">
  <diagram id="cdFLFHhvs3WtqILZuEGL" name="E Ticket">
    <mxGraphModel dx="2062" dy="796" grid="1" gridSize="10" guides="1" tooltips="1" connect="1" arrows="1" fold="1" page="1" pageScale="1" pageWidth="1169" pageHeight="827" math="0" shadow="0">
      <root>
        <mxCell id="0" />
        <mxCell id="1" parent="0" />
        <mxCell id="v-nKt9xh3OP5M9767R_m-2" value="TradeManagement" style="shape=cylinder3;whiteSpace=wrap;html=1;boundedLbl=1;backgroundOutline=1;size=15;" parent="1" vertex="1">
          <mxGeometry x="750" y="490.0000000000001" width="60" height="80" as="geometry" />
        </mxCell>
        <mxCell id="HtuYZeyKh8xC5aCiNlH0-3" value="" style="edgeStyle=orthogonalEdgeStyle;rounded=0;orthogonalLoop=1;jettySize=auto;html=1;" edge="1" parent="1" source="v-nKt9xh3OP5M9767R_m-3" target="v-nKt9xh3OP5M9767R_m-5">
          <mxGeometry relative="1" as="geometry" />
        </mxCell>
        <mxCell id="v-nKt9xh3OP5M9767R_m-3" value="Trader" style="shape=umlActor;verticalLabelPosition=bottom;verticalAlign=top;html=1;outlineConnect=0;" parent="1" vertex="1">
          <mxGeometry x="100" y="339.996266784668" width="30" height="60" as="geometry" />
        </mxCell>
        <mxCell id="HtuYZeyKh8xC5aCiNlH0-4" value="" style="edgeStyle=orthogonalEdgeStyle;rounded=0;orthogonalLoop=1;jettySize=auto;html=1;" edge="1" parent="1" source="v-nKt9xh3OP5M9767R_m-5" target="v-nKt9xh3OP5M9767R_m-6">
          <mxGeometry relative="1" as="geometry" />
        </mxCell>
        <mxCell id="v-nKt9xh3OP5M9767R_m-5" value="E Ticket UI" style="verticalLabelPosition=bottom;verticalAlign=top;html=1;shape=mxgraph.basic.diag_round_rect;dx=6;" parent="1" vertex="1">
          <mxGeometry x="200" y="339.996266784668" width="100" height="60" as="geometry" />
        </mxCell>
        <mxCell id="HtuYZeyKh8xC5aCiNlH0-5" value="" style="edgeStyle=orthogonalEdgeStyle;rounded=0;orthogonalLoop=1;jettySize=auto;html=1;" edge="1" parent="1" source="v-nKt9xh3OP5M9767R_m-6" target="v-nKt9xh3OP5M9767R_m-9">
          <mxGeometry relative="1" as="geometry" />
        </mxCell>
        <mxCell id="v-nKt9xh3OP5M9767R_m-6" value="E Ticket Gateway" style="verticalLabelPosition=bottom;verticalAlign=top;html=1;shape=mxgraph.basic.diag_round_rect;dx=6;" parent="1" vertex="1">
          <mxGeometry x="400" y="339.9941778564453" width="100" height="60" as="geometry" />
        </mxCell>
        <mxCell id="v-nKt9xh3OP5M9767R_m-8" value="SSRS Report&amp;nbsp;" style="verticalLabelPosition=bottom;verticalAlign=top;html=1;shape=mxgraph.basic.diag_round_rect;dx=6;" parent="1" vertex="1">
          <mxGeometry x="560" y="240" width="100" height="60" as="geometry" />
        </mxCell>
        <mxCell id="HtuYZeyKh8xC5aCiNlH0-6" value="" style="edgeStyle=orthogonalEdgeStyle;rounded=0;orthogonalLoop=1;jettySize=auto;html=1;" edge="1" parent="1" source="v-nKt9xh3OP5M9767R_m-9" target="v-nKt9xh3OP5M9767R_m-11">
          <mxGeometry relative="1" as="geometry" />
        </mxCell>
        <mxCell id="HtuYZeyKh8xC5aCiNlH0-7" value="" style="edgeStyle=orthogonalEdgeStyle;rounded=0;orthogonalLoop=1;jettySize=auto;html=1;" edge="1" parent="1" source="v-nKt9xh3OP5M9767R_m-9" target="v-nKt9xh3OP5M9767R_m-8">
          <mxGeometry relative="1" as="geometry" />
        </mxCell>
        <mxCell id="v-nKt9xh3OP5M9767R_m-9" value="E Ticket API" style="verticalLabelPosition=bottom;verticalAlign=top;html=1;shape=mxgraph.basic.diag_round_rect;dx=6;" parent="1" vertex="1">
          <mxGeometry x="560" y="340" width="100" height="60" as="geometry" />
        </mxCell>
        <mxCell id="v-nKt9xh3OP5M9767R_m-32" value="" style="edgeStyle=orthogonalEdgeStyle;rounded=0;orthogonalLoop=1;jettySize=auto;html=1;" parent="1" source="v-nKt9xh3OP5M9767R_m-10" target="v-nKt9xh3OP5M9767R_m-31" edge="1">
          <mxGeometry relative="1" as="geometry" />
        </mxCell>
        <mxCell id="v-nKt9xh3OP5M9767R_m-10" value="Worflow engine" style="verticalLabelPosition=bottom;verticalAlign=top;html=1;shape=mxgraph.basic.diag_round_rect;dx=6;" parent="1" vertex="1">
          <mxGeometry x="400" y="500.0000000000001" width="100" height="60" as="geometry" />
        </mxCell>
        <mxCell id="HtuYZeyKh8xC5aCiNlH0-9" value="" style="edgeStyle=orthogonalEdgeStyle;rounded=0;orthogonalLoop=1;jettySize=auto;html=1;" edge="1" parent="1" source="v-nKt9xh3OP5M9767R_m-11" target="v-nKt9xh3OP5M9767R_m-2">
          <mxGeometry relative="1" as="geometry" />
        </mxCell>
        <mxCell id="v-nKt9xh3OP5M9767R_m-11" value="Trading API" style="verticalLabelPosition=bottom;verticalAlign=top;html=1;shape=mxgraph.basic.diag_round_rect;dx=6;" parent="1" vertex="1">
          <mxGeometry x="730" y="340.0000000000001" width="100" height="60" as="geometry" />
        </mxCell>
        <mxCell id="HtuYZeyKh8xC5aCiNlH0-8" value="" style="edgeStyle=orthogonalEdgeStyle;rounded=0;orthogonalLoop=1;jettySize=auto;html=1;" edge="1" parent="1" source="v-nKt9xh3OP5M9767R_m-31" target="v-nKt9xh3OP5M9767R_m-2">
          <mxGeometry relative="1" as="geometry" />
        </mxCell>
        <mxCell id="v-nKt9xh3OP5M9767R_m-31" value="ATOM Trading service" style="verticalLabelPosition=bottom;verticalAlign=top;html=1;shape=mxgraph.basic.diag_round_rect;dx=6;" parent="1" vertex="1">
          <mxGeometry x="560" y="500.0000000000001" width="100" height="60" as="geometry" />
        </mxCell>
      </root>
    </mxGraphModel>
  </diagram>
  <diagram id="MNASLZrVfX2XZWR_6Hok" name="ATOM Trading web">
    <mxGraphModel dx="2062" dy="796" grid="1" gridSize="10" guides="1" tooltips="1" connect="1" arrows="1" fold="1" page="1" pageScale="1" pageWidth="1169" pageHeight="827" math="0" shadow="0">
      <root>
        <mxCell id="0" />
        <mxCell id="1" parent="0" />
        <mxCell id="RRF9_MBuPiH17IyI_tRf-4" value="" style="edgeStyle=orthogonalEdgeStyle;rounded=0;orthogonalLoop=1;jettySize=auto;html=1;" edge="1" parent="1" source="RRF9_MBuPiH17IyI_tRf-1" target="RRF9_MBuPiH17IyI_tRf-3">
          <mxGeometry relative="1" as="geometry" />
        </mxCell>
        <mxCell id="RRF9_MBuPiH17IyI_tRf-1" value="ATOM Trading Web UI" style="rounded=1;whiteSpace=wrap;html=1;" vertex="1" parent="1">
          <mxGeometry x="260" y="200" width="120" height="60" as="geometry" />
        </mxCell>
        <mxCell id="RRF9_MBuPiH17IyI_tRf-6" value="" style="edgeStyle=orthogonalEdgeStyle;rounded=0;orthogonalLoop=1;jettySize=auto;html=1;" edge="1" parent="1" source="RRF9_MBuPiH17IyI_tRf-3" target="RRF9_MBuPiH17IyI_tRf-5">
          <mxGeometry relative="1" as="geometry" />
        </mxCell>
        <mxCell id="RRF9_MBuPiH17IyI_tRf-3" value="Common DLL" style="rounded=1;whiteSpace=wrap;html=1;" vertex="1" parent="1">
          <mxGeometry x="460" y="200" width="120" height="60" as="geometry" />
        </mxCell>
        <mxCell id="RRF9_MBuPiH17IyI_tRf-5" value="Trade Management" style="shape=cylinder3;whiteSpace=wrap;html=1;boundedLbl=1;backgroundOutline=1;size=15;" vertex="1" parent="1">
          <mxGeometry x="490" y="320" width="60" height="80" as="geometry" />
        </mxCell>
        <mxCell id="RRF9_MBuPiH17IyI_tRf-8" value="" style="edgeStyle=orthogonalEdgeStyle;rounded=0;orthogonalLoop=1;jettySize=auto;html=1;" edge="1" parent="1" source="RRF9_MBuPiH17IyI_tRf-7" target="RRF9_MBuPiH17IyI_tRf-1">
          <mxGeometry relative="1" as="geometry" />
        </mxCell>
        <mxCell id="RRF9_MBuPiH17IyI_tRf-7" value="Trader" style="shape=umlActor;verticalLabelPosition=bottom;verticalAlign=top;html=1;outlineConnect=0;" vertex="1" parent="1">
          <mxGeometry x="180" y="200" width="30" height="60" as="geometry" />
        </mxCell>
      </root>
    </mxGraphModel>
  </diagram>
  <diagram id="o73aHLsx07TCO5RboHyY" name="Process Trade Screen">
    <mxGraphModel dx="2062" dy="796" grid="1" gridSize="10" guides="1" tooltips="1" connect="1" arrows="1" fold="1" page="1" pageScale="1" pageWidth="1169" pageHeight="827" math="0" shadow="0">
      <root>
        <mxCell id="0" />
        <mxCell id="1" parent="0" />
        <mxCell id="yYHclZllUbW8fKWcgCkl-3" value="" style="edgeStyle=orthogonalEdgeStyle;rounded=0;orthogonalLoop=1;jettySize=auto;html=1;" edge="1" parent="1" source="yYHclZllUbW8fKWcgCkl-1" target="yYHclZllUbW8fKWcgCkl-2">
          <mxGeometry relative="1" as="geometry" />
        </mxCell>
        <mxCell id="yYHclZllUbW8fKWcgCkl-1" value="Process Trade UI" style="rounded=1;whiteSpace=wrap;html=1;" vertex="1" parent="1">
          <mxGeometry x="250" y="200" width="120" height="60" as="geometry" />
        </mxCell>
        <mxCell id="yYHclZllUbW8fKWcgCkl-5" value="" style="edgeStyle=orthogonalEdgeStyle;rounded=0;orthogonalLoop=1;jettySize=auto;html=1;" edge="1" parent="1" source="yYHclZllUbW8fKWcgCkl-2" target="yYHclZllUbW8fKWcgCkl-4">
          <mxGeometry relative="1" as="geometry" />
        </mxCell>
        <mxCell id="yYHclZllUbW8fKWcgCkl-2" value="Process Trade Gateway" style="whiteSpace=wrap;html=1;rounded=1;" vertex="1" parent="1">
          <mxGeometry x="450" y="200" width="120" height="60" as="geometry" />
        </mxCell>
        <mxCell id="yYHclZllUbW8fKWcgCkl-7" value="" style="edgeStyle=orthogonalEdgeStyle;rounded=0;orthogonalLoop=1;jettySize=auto;html=1;" edge="1" parent="1" source="yYHclZllUbW8fKWcgCkl-4" target="yYHclZllUbW8fKWcgCkl-6">
          <mxGeometry relative="1" as="geometry" />
        </mxCell>
        <mxCell id="yYHclZllUbW8fKWcgCkl-4" value="ATOM Trading Service" style="whiteSpace=wrap;html=1;rounded=1;" vertex="1" parent="1">
          <mxGeometry x="650" y="200" width="120" height="60" as="geometry" />
        </mxCell>
        <mxCell id="yYHclZllUbW8fKWcgCkl-6" value="Trade management" style="shape=cylinder3;whiteSpace=wrap;html=1;boundedLbl=1;backgroundOutline=1;size=15;" vertex="1" parent="1">
          <mxGeometry x="680" y="330" width="60" height="80" as="geometry" />
        </mxCell>
        <mxCell id="yYHclZllUbW8fKWcgCkl-9" value="" style="edgeStyle=orthogonalEdgeStyle;rounded=0;orthogonalLoop=1;jettySize=auto;html=1;" edge="1" parent="1" source="yYHclZllUbW8fKWcgCkl-8" target="yYHclZllUbW8fKWcgCkl-1">
          <mxGeometry relative="1" as="geometry" />
        </mxCell>
        <mxCell id="yYHclZllUbW8fKWcgCkl-8" value="Trader" style="shape=umlActor;verticalLabelPosition=bottom;verticalAlign=top;html=1;outlineConnect=0;" vertex="1" parent="1">
          <mxGeometry x="160" y="200" width="30" height="60" as="geometry" />
        </mxCell>
      </root>
    </mxGraphModel>
  </diagram>
  <diagram id="MR8TtOvgv78hP3RqyYRi" name="Futures Uploader">
    <mxGraphModel dx="2062" dy="796" grid="1" gridSize="10" guides="1" tooltips="1" connect="1" arrows="1" fold="1" page="1" pageScale="1" pageWidth="1169" pageHeight="827" math="0" shadow="0">
      <root>
        <mxCell id="0" />
        <mxCell id="1" parent="0" />
        <mxCell id="owQCfjQRY_cIkLSSGUaz-5" value="" style="edgeStyle=orthogonalEdgeStyle;rounded=0;orthogonalLoop=1;jettySize=auto;html=1;" edge="1" parent="1" source="owQCfjQRY_cIkLSSGUaz-1" target="owQCfjQRY_cIkLSSGUaz-4">
          <mxGeometry relative="1" as="geometry" />
        </mxCell>
        <mxCell id="owQCfjQRY_cIkLSSGUaz-1" value="Trader" style="shape=umlActor;verticalLabelPosition=bottom;verticalAlign=top;html=1;outlineConnect=0;" vertex="1" parent="1">
          <mxGeometry x="270" y="200" width="30" height="60" as="geometry" />
        </mxCell>
        <mxCell id="owQCfjQRY_cIkLSSGUaz-7" value="" style="edgeStyle=orthogonalEdgeStyle;rounded=0;orthogonalLoop=1;jettySize=auto;html=1;" edge="1" parent="1" source="owQCfjQRY_cIkLSSGUaz-4" target="owQCfjQRY_cIkLSSGUaz-6">
          <mxGeometry relative="1" as="geometry" />
        </mxCell>
        <mxCell id="owQCfjQRY_cIkLSSGUaz-4" value="Futures UI" style="rounded=1;whiteSpace=wrap;html=1;" vertex="1" parent="1">
          <mxGeometry x="360" y="200" width="120" height="60" as="geometry" />
        </mxCell>
        <mxCell id="owQCfjQRY_cIkLSSGUaz-9" value="" style="edgeStyle=orthogonalEdgeStyle;rounded=0;orthogonalLoop=1;jettySize=auto;html=1;" edge="1" parent="1" source="owQCfjQRY_cIkLSSGUaz-6" target="owQCfjQRY_cIkLSSGUaz-8">
          <mxGeometry relative="1" as="geometry" />
        </mxCell>
        <mxCell id="owQCfjQRY_cIkLSSGUaz-12" style="edgeStyle=orthogonalEdgeStyle;rounded=0;orthogonalLoop=1;jettySize=auto;html=1;entryX=0;entryY=0.5;entryDx=0;entryDy=0;entryPerimeter=0;exitX=0.5;exitY=1;exitDx=0;exitDy=0;" edge="1" parent="1" source="owQCfjQRY_cIkLSSGUaz-6" target="owQCfjQRY_cIkLSSGUaz-10">
          <mxGeometry relative="1" as="geometry" />
        </mxCell>
        <mxCell id="owQCfjQRY_cIkLSSGUaz-6" value="Futures API" style="whiteSpace=wrap;html=1;rounded=1;" vertex="1" parent="1">
          <mxGeometry x="560" y="200" width="120" height="60" as="geometry" />
        </mxCell>
        <mxCell id="owQCfjQRY_cIkLSSGUaz-11" value="" style="edgeStyle=orthogonalEdgeStyle;rounded=0;orthogonalLoop=1;jettySize=auto;html=1;" edge="1" parent="1" source="owQCfjQRY_cIkLSSGUaz-8" target="owQCfjQRY_cIkLSSGUaz-10">
          <mxGeometry relative="1" as="geometry" />
        </mxCell>
        <mxCell id="owQCfjQRY_cIkLSSGUaz-8" value="Trading API" style="whiteSpace=wrap;html=1;rounded=1;" vertex="1" parent="1">
          <mxGeometry x="760" y="200" width="120" height="60" as="geometry" />
        </mxCell>
        <mxCell id="owQCfjQRY_cIkLSSGUaz-10" value="Trade management" style="shape=cylinder3;whiteSpace=wrap;html=1;boundedLbl=1;backgroundOutline=1;size=15;" vertex="1" parent="1">
          <mxGeometry x="790" y="300" width="60" height="80" as="geometry" />
        </mxCell>
      </root>
    </mxGraphModel>
  </diagram>
  <diagram id="aLKiJRDh8TK8u90CZVaW" name="Other uploaders">
    <mxGraphModel dx="2062" dy="796" grid="1" gridSize="10" guides="1" tooltips="1" connect="1" arrows="1" fold="1" page="1" pageScale="1" pageWidth="1169" pageHeight="827" math="0" shadow="0">
      <root>
        <mxCell id="0" />
        <mxCell id="1" parent="0" />
        <mxCell id="9N0uGq4iL2PqgGzdjOla-3" value="" style="edgeStyle=orthogonalEdgeStyle;rounded=0;orthogonalLoop=1;jettySize=auto;html=1;" edge="1" parent="1" source="9N0uGq4iL2PqgGzdjOla-1" target="9N0uGq4iL2PqgGzdjOla-2">
          <mxGeometry relative="1" as="geometry" />
        </mxCell>
        <mxCell id="9N0uGq4iL2PqgGzdjOla-1" value="Console EXE" style="rounded=1;whiteSpace=wrap;html=1;" vertex="1" parent="1">
          <mxGeometry x="300" y="200" width="120" height="60" as="geometry" />
        </mxCell>
        <mxCell id="9N0uGq4iL2PqgGzdjOla-5" value="" style="edgeStyle=orthogonalEdgeStyle;rounded=0;orthogonalLoop=1;jettySize=auto;html=1;" edge="1" parent="1" source="9N0uGq4iL2PqgGzdjOla-2" target="9N0uGq4iL2PqgGzdjOla-4">
          <mxGeometry relative="1" as="geometry" />
        </mxCell>
        <mxCell id="9N0uGq4iL2PqgGzdjOla-2" value="Common DLL" style="whiteSpace=wrap;html=1;rounded=1;" vertex="1" parent="1">
          <mxGeometry x="500" y="200" width="120" height="60" as="geometry" />
        </mxCell>
        <mxCell id="9N0uGq4iL2PqgGzdjOla-4" value="Trade management" style="shape=cylinder3;whiteSpace=wrap;html=1;boundedLbl=1;backgroundOutline=1;size=15;" vertex="1" parent="1">
          <mxGeometry x="530" y="320" width="60" height="80" as="geometry" />
        </mxCell>
      </root>
    </mxGraphModel>
  </diagram>
  <diagram id="tYXK67Asmt_PO_gcWNlg" name="Blotter Uploader">
    <mxGraphModel dx="2062" dy="796" grid="1" gridSize="10" guides="1" tooltips="1" connect="1" arrows="1" fold="1" page="1" pageScale="1" pageWidth="1169" pageHeight="827" math="0" shadow="0">
      <root>
        <mxCell id="0" />
        <mxCell id="1" parent="0" />
        <mxCell id="dM_6RZDbABrnzEoQBxWU-3" value="" style="edgeStyle=orthogonalEdgeStyle;rounded=0;orthogonalLoop=1;jettySize=auto;html=1;" edge="1" parent="1" source="dM_6RZDbABrnzEoQBxWU-1" target="dM_6RZDbABrnzEoQBxWU-2">
          <mxGeometry relative="1" as="geometry" />
        </mxCell>
        <mxCell id="dM_6RZDbABrnzEoQBxWU-1" value="Blotter UI" style="rounded=1;whiteSpace=wrap;html=1;" vertex="1" parent="1">
          <mxGeometry x="210" y="200" width="120" height="60" as="geometry" />
        </mxCell>
        <mxCell id="dM_6RZDbABrnzEoQBxWU-5" value="" style="edgeStyle=orthogonalEdgeStyle;rounded=0;orthogonalLoop=1;jettySize=auto;html=1;" edge="1" parent="1" source="dM_6RZDbABrnzEoQBxWU-2" target="dM_6RZDbABrnzEoQBxWU-4">
          <mxGeometry relative="1" as="geometry" />
        </mxCell>
        <mxCell id="dM_6RZDbABrnzEoQBxWU-2" value="Common DLL" style="rounded=1;whiteSpace=wrap;html=1;" vertex="1" parent="1">
          <mxGeometry x="410" y="200" width="120" height="60" as="geometry" />
        </mxCell>
        <mxCell id="dM_6RZDbABrnzEoQBxWU-4" value="Trade manamement" style="shape=cylinder3;whiteSpace=wrap;html=1;boundedLbl=1;backgroundOutline=1;size=15;" vertex="1" parent="1">
          <mxGeometry x="440" y="310" width="60" height="80" as="geometry" />
        </mxCell>
      </root>
    </mxGraphModel>
  </diagram>
</mxfile>
